<?xml version="1.0" encoding="UTF-8" standalone="no"?>
<!-- Created with Inkscape (http://www.inkscape.org/) -->

<svg
   width="256"
   height="256"
   viewBox="0 0 67.733332 67.733335"
   version="1.1"
   id="svg5"
   inkscape:version="1.1.1 (c3084ef, 2021-09-22)"
   sodipodi:docname="ice_icon.svg"
   xmlns:inkscape="http://www.inkscape.org/namespaces/inkscape"
   xmlns:sodipodi="http://sodipodi.sourceforge.net/DTD/sodipodi-0.dtd"
   xmlns="http://www.w3.org/2000/svg"
   xmlns:svg="http://www.w3.org/2000/svg">
  <sodipodi:namedview
     id="namedview7"
     pagecolor="#505050"
     bordercolor="#ffffff"
     borderopacity="1"
     inkscape:pageshadow="0"
     inkscape:pageopacity="0"
     inkscape:pagecheckerboard="1"
     inkscape:document-units="mm"
     showgrid="false"
     units="px"
     inkscape:snap-global="false"
     inkscape:zoom="2.5620932"
     inkscape:cx="95.234633"
     inkscape:cy="104.40682"
     inkscape:window-width="1619"
     inkscape:window-height="1127"
     inkscape:window-x="1942"
     inkscape:window-y="102"
     inkscape:window-maximized="0"
     inkscape:current-layer="layer1" />
  <defs
     id="defs2">
    <marker
       inkscape:stockid="Arrow1Mend"
       orient="auto"
       refY="0"
       refX="0"
       id="marker5497"
       style="overflow:visible"
       inkscape:isstock="true">
      <path
         id="path5495"
         d="M 0,0 5,-5 -12.5,0 5,5 Z"
         style="fill:#00ccff;fill-opacity:1;fill-rule:evenodd;stroke:#00ccff;stroke-width:1pt;stroke-opacity:1"
         transform="matrix(-0.4,0,0,-0.4,-4,0)" />
    </marker>
    <marker
       inkscape:stockid="Arrow2Sstart"
       orient="auto"
       refY="0"
       refX="0"
       id="marker9640"
       style="overflow:visible"
       inkscape:isstock="true">
      <path
         id="path9638"
         style="fill:#b3b3b3;fill-opacity:1;fill-rule:evenodd;stroke:#b3b3b3;stroke-width:0.625;stroke-linejoin:round;stroke-opacity:1"
         d="M 8.7185878,4.0337352 -2.2072895,0.01601326 8.7185884,-4.0017078 c -1.7454984,2.3720609 -1.7354408,5.6174519 -6e-7,8.035443 z"
         transform="matrix(0.3,0,0,0.3,-0.69,0)" />
    </marker>
    <marker
       inkscape:isstock="true"
       style="overflow:visible"
       id="marker9660"
       refX="0"
       refY="0"
       orient="auto"
       inkscape:stockid="Arrow1Mend">
      <path
         transform="matrix(-0.4,0,0,-0.4,-4,0)"
         style="fill:#b3b3b3;fill-opacity:1;fill-rule:evenodd;stroke:#b3b3b3;stroke-width:1pt;stroke-opacity:1"
         d="M 0,0 5,-5 -12.5,0 5,5 Z"
         id="path9658" />
    </marker>
    <marker
       inkscape:isstock="true"
       style="overflow:visible"
       id="marker5477"
       refX="0"
       refY="0"
       orient="auto"
       inkscape:stockid="Arrow1Mend">
      <path
         transform="matrix(-0.4,0,0,-0.4,-4,0)"
         style="fill:#00ccff;fill-opacity:1;fill-rule:evenodd;stroke:#00ccff;stroke-width:1pt;stroke-opacity:1"
         d="M 0,0 5,-5 -12.5,0 5,5 Z"
         id="path5475" />
    </marker>
    <marker
       inkscape:stockid="Arrow1Mend"
       orient="auto"
       refY="0"
       refX="0"
       id="marker5467"
       style="overflow:visible"
       inkscape:isstock="true">
      <path
         id="path5465"
         d="M 0,0 5,-5 -12.5,0 5,5 Z"
         style="fill:#000000;fill-opacity:1;fill-rule:evenodd;stroke:#000000;stroke-width:1pt;stroke-opacity:1"
         transform="matrix(-0.4,0,0,-0.4,-4,0)" />
    </marker>
    <marker
       inkscape:stockid="Arrow1Mend"
       orient="auto"
       refY="0"
       refX="0"
       id="marker5457"
       style="overflow:visible"
       inkscape:isstock="true">
      <path
         id="path5455"
         d="M 0,0 5,-5 -12.5,0 5,5 Z"
         style="fill:#00ccff;fill-opacity:1;fill-rule:evenodd;stroke:#00ccff;stroke-width:1pt;stroke-opacity:1"
         transform="matrix(-0.4,0,0,-0.4,-4,0)" />
    </marker>
    <marker
       inkscape:isstock="true"
       style="overflow:visible"
       id="marker5447"
       refX="0"
       refY="0"
       orient="auto"
       inkscape:stockid="TriangleOutS">
      <path
         transform="scale(0.2)"
         style="fill:#d5c29b;fill-opacity:1;fill-rule:evenodd;stroke:#d5c29b;stroke-width:1pt;stroke-opacity:1"
         d="M 5.77,0 -2.88,5 V -5 Z"
         id="path5445" />
    </marker>
    <marker
       inkscape:isstock="true"
       style="overflow:visible"
       id="marker5437"
       refX="0"
       refY="0"
       orient="auto"
       inkscape:stockid="TriangleOutS">
      <path
         transform="scale(0.2)"
         style="fill:#00ccff;fill-opacity:1;fill-rule:evenodd;stroke:#00ccff;stroke-width:1pt;stroke-opacity:1"
         d="M 5.77,0 -2.88,5 V -5 Z"
         id="path5435" />
    </marker>
    <marker
       inkscape:isstock="true"
       style="overflow:visible"
       id="marker5427"
       refX="0"
       refY="0"
       orient="auto"
       inkscape:stockid="TriangleOutS">
      <path
         transform="scale(0.2)"
         style="fill:#b3b3b3;fill-opacity:1;fill-rule:evenodd;stroke:#b3b3b3;stroke-width:1pt;stroke-opacity:1"
         d="M 5.77,0 -2.88,5 V -5 Z"
         id="path5425" />
    </marker>
    <marker
       inkscape:stockid="EmptyTriangleOutL"
       orient="auto"
       refY="0"
       refX="0"
       id="marker5417"
       style="overflow:visible"
       inkscape:isstock="true">
      <path
         id="path5415"
         d="M 5.77,0 -2.88,5 V -5 Z"
         style="fill:#b291bd;fill-opacity:1;fill-rule:evenodd;stroke:#b291bd;stroke-width:1pt;stroke-opacity:1"
         transform="matrix(0.8,0,0,0.8,-4.8,0)" />
    </marker>
    <clipPath
       id="clip1">
      <path
         d="M 1,0.242188 H 7 V 6 H 1 Z m 0,0"
         id="path8970" />
    </clipPath>
    <clipPath
       id="clip1-7">
      <path
         d="m 13,2 h 6 v 9.710938 h -6 z m 0,0"
         id="path9022" />
    </clipPath>
    <clipPath
       id="clip1-1">
      <path
         d="M 0.144531,9 H 9 v 5 H 0.144531 Z m 0,0"
         id="path9070" />
    </clipPath>
    <clipPath
       id="clip1-8">
      <path
         d="M 1,0.242188 H 7 V 6 H 1 Z m 0,0"
         id="path9203" />
    </clipPath>
    <clipPath
       id="clip1-5">
      <path
         d="M 1,0.242188 H 7 V 6 H 1 Z m 0,0"
         id="path9233" />
    </clipPath>
    <clipPath
       id="clip1-78">
      <path
         d="m 5,1 h 7 V 6.964844 H 5 Z m 0,0"
         id="path10421" />
    </clipPath>
    <clipPath
       id="clip1-28">
      <path
         d="M 5,1 H 9 V 6.964844 H 5 Z m 0,0"
         id="path10488" />
    </clipPath>
    <clipPath
       id="clip2">
      <path
         d="m 27,3 h 4 v 3.964844 h -4 z m 0,0"
         id="path10491" />
    </clipPath>
  </defs>
  <g
     inkscape:label="Layer 1"
     inkscape:groupmode="layer"
     id="layer1">
    <path
       style="display:inline;fill:#ececec;fill-opacity:1;stroke:#000000;stroke-width:0.264583;stroke-linecap:butt;stroke-linejoin:miter;stroke-miterlimit:4;stroke-dasharray:none;stroke-opacity:1"
       d="m 62.518761,47.629428 0.457577,-2.825535 -0.172215,-0.172215 -0.567851,0.486025 -0.324207,-0.263383 -0.141773,-0.222828 -0.577607,-0.24317 -0.233354,0.445572 -0.547358,0.05052 -0.577776,0.101214 -0.476285,-0.182388 -0.486485,-0.05071 -0.760388,0.404961 -0.344973,0.688618 -0.242843,-0.800131 -1.05434,0.435295 -1.02319,-0.992709 -0.26352,-0.02031 -0.780515,0.151813 -0.750007,-0.07103 -0.516831,-0.172268 -0.668909,-0.09127 -1.946308,0.485764 -0.516922,-1.01e-4 -0.760119,-0.111551 -0.324295,-0.0912 0.111714,-0.41521 -0.44603,0.111324 -1.357779,-0.780092 -0.527049,-0.04067 -0.517025,0.172029 -0.599726,1.014156 -1.090035,1.245871 -1.333968,1.732797 -0.645212,0.343623 -0.73129,0.486838 -0.30153,0.988208 -0.88889,0.343584 -0.688631,1.145679 -2.366017,1.74697 0.600267,3.380263 1.518149,2.420821 1.117252,1.54706 1.53334,0.773715 -0.215451,0.844998 0.657742,3.122476 0.315197,0.286503 0.286087,1.145881 -0.100629,0.572892 0.873949,0.816541 1.032312,-0.501098 1.318652,0.157803 0.573437,-0.143119 1.749806,-2.019173 1.635368,-2.477529 1.377645,-3.021825 3.872915,-5.227058 1.419921,-1.632527 1.276118,-0.744541 1.276373,-1.231512 1.463086,-1.947612 z"
       id="path5176" />
    <path
       style="display:inline;fill:#ececec;fill-opacity:1;stroke:#000000;stroke-width:0.264583;stroke-linecap:butt;stroke-linejoin:miter;stroke-miterlimit:4;stroke-dasharray:none;stroke-opacity:1"
       d="m 58.735176,28.239532 -2.85298,-0.974033 -0.626261,0.278305 -1.670036,-0.417446 -0.556679,0.06955 -0.487094,2.435065 -0.626258,0.487015 -0.904604,0.417434 -0.06958,0.69574 0.13917,1.948043 0.487094,0.278297 0.487088,0.626166 0.208755,0.765306 0.487095,0.208748 1.043774,-0.06955 0.904602,-0.278293 1.252523,-1.391471 0.208755,-0.13914 0.904602,0.06955 0.417508,-1.321891 0.278341,-0.06955 0.417507,-1.600185 0.347925,-0.626182 z"
       id="path3746" />
    <path
       style="display:inline;fill:#ececec;fill-opacity:1;stroke:#000000;stroke-width:0.264583;stroke-linecap:butt;stroke-linejoin:miter;stroke-miterlimit:4;stroke-dasharray:none;stroke-opacity:1"
       d="m 63.407601,9.6674169 1.082487,-1.771042 -3.050642,-6.1002647 -0.787263,0.2951721 -2.755419,0.196785 -2.460196,-0.098401 -0.787263,-0.2951807 -0.984077,0.2951807 -2.657012,2.1646041 -0.78726,2.3613941 -1.082487,2.7549574 -0.09841,0.6887421 -0.688855,0.393568 0.39363,2.361396 0.295226,0.688733 0.590446,0.98391 0.787262,1.96784 1.180893,1.672655 0.984079,0.787129 1.279302,0.196773 1.869748,0.491968 6.2981,2.164599 3.345865,-3.738866 -0.688855,-2.853355 -0.09841,-0.885515 0.688849,-0.688731 -0.09841,-1.180699 -1.180895,-1.180697 0.196816,-0.688734 -0.09841,-0.590352 z"
       id="path3631" />
    <path
       style="display:inline;fill:#ececec;stroke:#000000;stroke-width:0.264584;stroke-linecap:butt;stroke-linejoin:miter;stroke-miterlimit:4;stroke-dasharray:none;stroke-opacity:1"
       d="m 40.849072,33.458319 1.303033,-3.908421 1.066109,-2.250307 0.829197,-2.131872 0.59229,-0.355308 -0.118468,-3.197806 0.710743,-1.776558 -0.355361,-3.90843 -1.184571,-0.236875 -0.355376,-0.829058 0.710743,-2.724056 L 42.270557,9.1786969 37.887655,1.361845 37.058451,0.76965451 35.755426,0.41434681 h -0.592291 l -1.06611,-0.1184488 h -1.539938 l -0.47383,0.4737486 -1.184563,-0.5921815 -0.355375,0.7106234 -1.658392,0.11843629 -0.710743,0.1184352 -1.6584,0.7106155 -0.118455,0.9474994 -1.539948,2.4871814 H 23.672812 L 22.488249,3.6121425 21.303677,2.9015168 10.287181,6.0993228 8.5103195,7.1652559 9.10261,10.71837 l 0.118456,0.947498 -0.4738296,0.47375 -2.013767,0.710624 -0.7107439,0.236875 -1.184563,1.065933 0.2369147,1.894989 -0.4738293,1.302816 -0.2369135,1.539682 -0.3553771,0.829058 -0.473827,1.776557 -0.1184556,0.947499 -1.0661107,1.184374 0.4738202,4.382181 0.3553759,1.421239 0.4738281,0.829067 -0.2369135,0.9475 v 0.829057 l 0.2369135,2.250307 0.3553669,1.302807 0.2369146,4.855929 0.3553759,2.960931 -0.3553759,2.487173 -0.1184556,2.013441 1.6583922,2.842488 1.0661187,2.013433 0.2369147,2.01343 v 2.487191 l 1.3030242,1.894991 1.6583921,1.53969 2.132229,1.184365 1.6584,0.118448 1.184572,-0.947499 1.776855,-0.355308 4.501362,0.947491 1.776854,-0.355308 0.710743,-0.47375 2.487596,-0.355317 1.539938,-1.302807 2.724512,-3.316239 1.658399,-3.079372 0.355368,-1.184375 1.303025,-0.355308 0.829204,-0.355307 2.132221,-4.737488 -0.829196,-0.829066 0.236915,-1.065933 0.473828,-0.47375 v -0.829064 -2.013431 l 2.487596,-3.553122 0.118456,-1.184367 0.355376,-1.06594 0.947648,-0.236875 0.236915,-1.42124"
       id="path7302"
       sodipodi:nodetypes="cccccccccccccccccccccccccccccccccccccccccccccccccccccccccccccccccccccccccccccccccccccc" />
    <path
       style="color:#000000;fill:#d5c29b;stroke-width:1.78777;-inkscape-stroke:none"
       d="m 23.799573,31.328959 -8.741407,5.973163"
       id="path3363" />
    <path
       id="path3360"
       style="color:#000000;fill:#d5c29b;stroke:#000000;stroke-width:0.264583;stroke-miterlimit:4;stroke-dasharray:none"
       d="m 23.139245,30.36262 -7.370793,5.035529 -0.966528,-1.413681 -2.488742,5.194559 0.53741,-0.0406 5.20558,-0.393856 -0.965851,-1.413009 7.368764,-5.034853 z" />
    <path
       style="color:#000000;opacity:0.5;fill:#00ccff;stroke-width:1.79063;-inkscape-stroke:none"
       d="M 23.822006,30.960642 7.6951375,3.7853614"
       id="path2889" />
    <path
       id="path2891"
       style="color:#000000;opacity:1;fill:#00ccff;stroke:#000000;stroke-width:0.264583;stroke-miterlimit:4;stroke-dasharray:none"
       d="M 5.9948753,0.92091001 6.0023553,1.4609387 6.0612383,6.6886591 7.5360746,5.8136504 22.814394,31.559752 24.830026,30.36262 9.552383,4.617196 11.026542,3.7421873 Z" />
    <path
       style="color:#000000;opacity:0.5;fill:#b3b3b3;stroke-width:1.79063;-inkscape-stroke:none"
       d="M 23.810109,31.067801 61.057812,41.854065"
       id="path3431" />
    <path
       id="path3428"
       style="color:#000000;opacity:1;fill:#b3b3b3;stroke:#000000;stroke-width:0.264583;stroke-miterlimit:4;stroke-dasharray:none;fill-opacity:1"
       d="m 24.136907,29.941017 -0.652474,2.252829 35.649188,10.323479 -0.477172,1.647156 5.602207,-1.38391 -0.376323,-0.389117 -3.619743,-3.77208 -0.477172,1.647156 z" />
    <circle
       style="display:inline;opacity:1;fill:#ececec;fill-opacity:1;stroke:none;stroke-width:0.179064;stroke-miterlimit:4;stroke-dasharray:none"
       id="circle5383"
       cx="23.44047"
       cy="31.413252"
       r="2.5563014" />
  </g>
</svg>
