<?xml version="1.0" encoding="UTF-8" standalone="no"?>
<svg
   width="16"
   height="16"
   version="1.1"
   id="svg1"
   sodipodi:docname="icon-bluesky.svg"
   inkscape:version="1.3 (0e150ed, 2023-07-21)"
   xmlns:inkscape="http://www.inkscape.org/namespaces/inkscape"
   xmlns:sodipodi="http://sodipodi.sourceforge.net/DTD/sodipodi-0.dtd"
   xmlns="http://www.w3.org/2000/svg"
   xmlns:svg="http://www.w3.org/2000/svg">
  <defs
     id="defs1" />
  <sodipodi:namedview
     id="namedview1"
     pagecolor="#505050"
     bordercolor="#ffffff"
     borderopacity="1"
     inkscape:showpageshadow="0"
     inkscape:pageopacity="0"
     inkscape:pagecheckerboard="1"
     inkscape:deskcolor="#505050"
     inkscape:zoom="17.626667"
     inkscape:cx="7.5170195"
     inkscape:cy="16.537443"
     inkscape:window-width="1392"
     inkscape:window-height="1229"
     inkscape:window-x="1115"
     inkscape:window-y="25"
     inkscape:window-maximized="0"
     inkscape:current-layer="svg1" />
  <path
     d="m 3.4682105,1.9044418 c 1.834362,1.377123 3.807427,4.169356 4.531836,5.66783 0.724465,-1.498364 2.6974195,-4.290734 4.5318365,-5.66783 1.323578,-0.99367689 3.468118,-1.76252769 3.468118,0.683996 0,0.488604 -0.280136,4.104529 -0.444438,4.69156 -0.571114,2.040926 -2.652233,2.561475 -4.503423,2.246415 3.235844,0.5507282 4.059012,2.3749382 2.281284,4.1991482 -3.3762575,3.464532 -4.8526625,-0.869264 -5.2311435,-1.97974 -0.06935,-0.203577 -0.101803,-0.298812 -0.102281,-0.217831 -4.8e-4,-0.08098 -0.03293,0.01425 -0.10228,0.217831 -0.378315,1.110476 -1.854693,5.444383 -5.231143,1.97974 -1.777755,-1.82421 -0.954615,-3.648531 2.281284,-4.1991482 -1.851245,0.31506 -3.932392,-0.205492 -4.503423,-2.246415 -0.164308,-0.587087 -0.444439,-4.203011 -0.444439,-4.69156 0,-2.44652369 2.144595,-1.67767289 3.468118,-0.683996 z"
     fill="#1185fe"
     id="path1"
     style="fill:#000000;stroke-width:1" />
</svg>
