<?xml version="1.0" encoding="UTF-8" standalone="no"?>
<svg
   viewBox="0 0 16 16"
   fill-rule="evenodd"
   clip-rule="evenodd"
   stroke-linejoin="round"
   stroke-miterlimit="1.414"
   version="1.1"
   id="svg1"
   sodipodi:docname="icon-bluesky.svg"
   inkscape:version="1.3 (0e150ed, 2023-07-21)"
   xmlns:inkscape="http://www.inkscape.org/namespaces/inkscape"
   xmlns:sodipodi="http://sodipodi.sourceforge.net/DTD/sodipodi-0.dtd"
   xmlns="http://www.w3.org/2000/svg"
   xmlns:svg="http://www.w3.org/2000/svg">
  <defs
     id="defs1" />
  <sodipodi:namedview
     id="namedview1"
     pagecolor="#505050"
     bordercolor="#ffffff"
     borderopacity="1"
     inkscape:showpageshadow="0"
     inkscape:pageopacity="0"
     inkscape:pagecheckerboard="1"
     inkscape:deskcolor="#505050"
     inkscape:zoom="14.75"
     inkscape:cx="8"
     inkscape:cy="7.9661017"
     inkscape:window-width="1336"
     inkscape:window-height="771"
     inkscape:window-x="0"
     inkscape:window-y="38"
     inkscape:window-maximized="0"
     inkscape:current-layer="svg1" />
  <path
     d="M 3.4682117,1.2012593 C 5.3025732,2.5783819 7.2756378,5.3706146 8.000047,6.8690885 8.7245118,5.370725 10.697466,2.5783551 12.531882,1.2012593 13.855461,0.20758255 16,-0.56126823 16,1.8852551 c 0,0.4886041 -0.280139,4.1045285 -0.444438,4.6915595 -0.571114,2.0409256 -2.652233,2.561475 -4.503422,2.2464151 3.235843,0.5507278 4.059011,2.3749373 2.281283,4.1991473 -3.3762568,3.464532 -4.8526609,-0.869264 -5.2311424,-1.97974 -0.069351,-0.203577 -0.1018038,-0.298812 -0.1022797,-0.21783 -4.8e-4,-0.08098 -0.032958,0.01425 -0.1022816,0.217829 C 7.5194049,12.153113 6.0430269,16.48702 2.6665777,13.022377 0.88882322,11.198167 1.7119628,9.3738468 4.9478616,8.8232297 3.0966165,9.1382896 1.0154699,8.6177375 0.44443922,6.5768146 0.28013106,5.9897277 1.6666666e-8,2.3738044 1.6666666e-8,1.8852551 1.6666666e-8,-0.56126823 2.1445947,0.20758255 3.4681176,1.2012593 Z"
     id="path1"
     style="fill:#1185fe;fill-opacity:1" />
</svg>
