<?xml version="1.0" encoding="UTF-8" standalone="no"?>
<!-- Created with Inkscape (http://www.inkscape.org/) -->

<svg
   width="256"
   height="256"
   viewBox="0 0 67.733332 67.733335"
   version="1.1"
   id="svg5"
   inkscape:version="1.1.1 (c3084ef, 2021-09-22)"
   sodipodi:docname="ice_icon.svg"
   xmlns:inkscape="http://www.inkscape.org/namespaces/inkscape"
   xmlns:sodipodi="http://sodipodi.sourceforge.net/DTD/sodipodi-0.dtd"
   xmlns="http://www.w3.org/2000/svg"
   xmlns:svg="http://www.w3.org/2000/svg">
  <sodipodi:namedview
     id="namedview7"
     pagecolor="#505050"
     bordercolor="#ffffff"
     borderopacity="1"
     inkscape:pageshadow="0"
     inkscape:pageopacity="0"
     inkscape:pagecheckerboard="1"
     inkscape:document-units="mm"
     showgrid="false"
     units="px"
     inkscape:snap-global="false"
     inkscape:zoom="1.2810466"
     inkscape:cx="191.24988"
     inkscape:cy="213.49731"
     inkscape:window-width="1619"
     inkscape:window-height="1127"
     inkscape:window-x="1942"
     inkscape:window-y="102"
     inkscape:window-maximized="0"
     inkscape:current-layer="layer1" />
  <defs
     id="defs2">
    <marker
       inkscape:stockid="Arrow1Mend"
       orient="auto"
       refY="0"
       refX="0"
       id="marker5497"
       style="overflow:visible"
       inkscape:isstock="true">
      <path
         id="path5495"
         d="M 0,0 5,-5 -12.5,0 5,5 Z"
         style="fill:#00ccff;fill-opacity:1;fill-rule:evenodd;stroke:#00ccff;stroke-width:1pt;stroke-opacity:1"
         transform="matrix(-0.4,0,0,-0.4,-4,0)" />
    </marker>
    <marker
       inkscape:stockid="Arrow2Sstart"
       orient="auto"
       refY="0"
       refX="0"
       id="marker9640"
       style="overflow:visible"
       inkscape:isstock="true">
      <path
         id="path9638"
         style="fill:#b3b3b3;fill-opacity:1;fill-rule:evenodd;stroke:#b3b3b3;stroke-width:0.625;stroke-linejoin:round;stroke-opacity:1"
         d="M 8.7185878,4.0337352 -2.2072895,0.01601326 8.7185884,-4.0017078 c -1.7454984,2.3720609 -1.7354408,5.6174519 -6e-7,8.035443 z"
         transform="matrix(0.3,0,0,0.3,-0.69,0)" />
    </marker>
    <marker
       inkscape:isstock="true"
       style="overflow:visible"
       id="marker9660"
       refX="0"
       refY="0"
       orient="auto"
       inkscape:stockid="Arrow1Mend">
      <path
         transform="matrix(-0.4,0,0,-0.4,-4,0)"
         style="fill:#b3b3b3;fill-opacity:1;fill-rule:evenodd;stroke:#b3b3b3;stroke-width:1pt;stroke-opacity:1"
         d="M 0,0 5,-5 -12.5,0 5,5 Z"
         id="path9658" />
    </marker>
    <marker
       inkscape:isstock="true"
       style="overflow:visible"
       id="marker5477"
       refX="0"
       refY="0"
       orient="auto"
       inkscape:stockid="Arrow1Mend">
      <path
         transform="matrix(-0.4,0,0,-0.4,-4,0)"
         style="fill:#00ccff;fill-opacity:1;fill-rule:evenodd;stroke:#00ccff;stroke-width:1pt;stroke-opacity:1"
         d="M 0,0 5,-5 -12.5,0 5,5 Z"
         id="path5475" />
    </marker>
    <marker
       inkscape:stockid="Arrow1Mend"
       orient="auto"
       refY="0"
       refX="0"
       id="marker5467"
       style="overflow:visible"
       inkscape:isstock="true">
      <path
         id="path5465"
         d="M 0,0 5,-5 -12.5,0 5,5 Z"
         style="fill:#000000;fill-opacity:1;fill-rule:evenodd;stroke:#000000;stroke-width:1pt;stroke-opacity:1"
         transform="matrix(-0.4,0,0,-0.4,-4,0)" />
    </marker>
    <marker
       inkscape:stockid="Arrow1Mend"
       orient="auto"
       refY="0"
       refX="0"
       id="marker5457"
       style="overflow:visible"
       inkscape:isstock="true">
      <path
         id="path5455"
         d="M 0,0 5,-5 -12.5,0 5,5 Z"
         style="fill:#00ccff;fill-opacity:1;fill-rule:evenodd;stroke:#00ccff;stroke-width:1pt;stroke-opacity:1"
         transform="matrix(-0.4,0,0,-0.4,-4,0)" />
    </marker>
    <marker
       inkscape:isstock="true"
       style="overflow:visible"
       id="marker5447"
       refX="0"
       refY="0"
       orient="auto"
       inkscape:stockid="TriangleOutS">
      <path
         transform="scale(0.2)"
         style="fill:#d5c29b;fill-opacity:1;fill-rule:evenodd;stroke:#d5c29b;stroke-width:1pt;stroke-opacity:1"
         d="M 5.77,0 -2.88,5 V -5 Z"
         id="path5445" />
    </marker>
    <marker
       inkscape:isstock="true"
       style="overflow:visible"
       id="marker5437"
       refX="0"
       refY="0"
       orient="auto"
       inkscape:stockid="TriangleOutS">
      <path
         transform="scale(0.2)"
         style="fill:#00ccff;fill-opacity:1;fill-rule:evenodd;stroke:#00ccff;stroke-width:1pt;stroke-opacity:1"
         d="M 5.77,0 -2.88,5 V -5 Z"
         id="path5435" />
    </marker>
    <marker
       inkscape:isstock="true"
       style="overflow:visible"
       id="marker5427"
       refX="0"
       refY="0"
       orient="auto"
       inkscape:stockid="TriangleOutS">
      <path
         transform="scale(0.2)"
         style="fill:#b3b3b3;fill-opacity:1;fill-rule:evenodd;stroke:#b3b3b3;stroke-width:1pt;stroke-opacity:1"
         d="M 5.77,0 -2.88,5 V -5 Z"
         id="path5425" />
    </marker>
    <marker
       inkscape:stockid="EmptyTriangleOutL"
       orient="auto"
       refY="0"
       refX="0"
       id="marker5417"
       style="overflow:visible"
       inkscape:isstock="true">
      <path
         id="path5415"
         d="M 5.77,0 -2.88,5 V -5 Z"
         style="fill:#b291bd;fill-opacity:1;fill-rule:evenodd;stroke:#b291bd;stroke-width:1pt;stroke-opacity:1"
         transform="matrix(0.8,0,0,0.8,-4.8,0)" />
    </marker>
    <clipPath
       id="clip1">
      <path
         d="M 1,0.242188 H 7 V 6 H 1 Z m 0,0"
         id="path8970" />
    </clipPath>
    <clipPath
       id="clip1-7">
      <path
         d="m 13,2 h 6 v 9.710938 h -6 z m 0,0"
         id="path9022" />
    </clipPath>
    <clipPath
       id="clip1-1">
      <path
         d="M 0.144531,9 H 9 v 5 H 0.144531 Z m 0,0"
         id="path9070" />
    </clipPath>
    <clipPath
       id="clip1-8">
      <path
         d="M 1,0.242188 H 7 V 6 H 1 Z m 0,0"
         id="path9203" />
    </clipPath>
    <clipPath
       id="clip1-5">
      <path
         d="M 1,0.242188 H 7 V 6 H 1 Z m 0,0"
         id="path9233" />
    </clipPath>
    <clipPath
       id="clip1-78">
      <path
         d="m 5,1 h 7 V 6.964844 H 5 Z m 0,0"
         id="path10421" />
    </clipPath>
    <clipPath
       id="clip1-28">
      <path
         d="M 5,1 H 9 V 6.964844 H 5 Z m 0,0"
         id="path10488" />
    </clipPath>
    <clipPath
       id="clip2">
      <path
         d="m 27,3 h 4 v 3.964844 h -4 z m 0,0"
         id="path10491" />
    </clipPath>
  </defs>
  <g
     inkscape:label="Layer 1"
     inkscape:groupmode="layer"
     id="layer1">
    <path
       style="display:inline;fill:#ececec;fill-opacity:1;stroke:#000000;stroke-width:0.264583;stroke-linecap:butt;stroke-linejoin:miter;stroke-miterlimit:4;stroke-dasharray:none;stroke-opacity:1"
       d="m 64.77534,49.731454 0.349358,-2.157641 -0.131485,-0.131508 -0.433552,0.371139 -0.24753,-0.201125 -0.108243,-0.170156 -0.441001,-0.18569 -0.178164,0.340248 -0.417905,0.03858 -0.441129,0.07729 -0.363641,-0.139275 -0.371429,-0.03873 -0.580553,0.309237 -0.263385,0.525844 -0.185409,-0.610998 -0.804983,0.332401 -0.781201,-0.758055 -0.201196,-0.01551 -0.59592,0.115928 -0.572626,-0.05424 -0.394598,-0.131548 -0.510708,-0.0697 -1.485997,0.37094 -0.394667,-7.7e-5 -0.580347,-0.08518 -0.247598,-0.06965 0.08529,-0.317064 -0.340542,0.08501 -1.036657,-0.595696 -0.4024,-0.03106 -0.394745,0.131365 -0.457888,0.774432 -0.832237,0.951376 -1.018478,1.323202 -0.492616,0.262398 -0.558336,0.37176 -0.230216,0.754618 -0.678663,0.262368 -0.525767,0.874867 -1.806442,1.334025 0.458301,2.581244 1.159099,1.848593 0.853016,1.18137 1.170697,0.590826 -0.164495,0.64526 0.502183,2.384392 0.240651,0.21878 0.218426,0.87502 -0.07683,0.437473 0.667256,0.623529 0.788165,-0.382649 1.006784,0.120502 0.437816,-0.109289 1.335968,-1.541886 1.248596,-1.891896 1.051825,-2.307533 2.956951,-3.991499 1.084103,-1.246634 0.974309,-0.568548 0.974505,-0.94041 1.117059,-1.48724 z"
       id="path5176" />
    <path
       style="display:inline;fill:#ececec;stroke:#000000;stroke-width:0.264583;stroke-linecap:butt;stroke-linejoin:miter;stroke-miterlimit:4;stroke-dasharray:none;stroke-opacity:1;fill-opacity:1"
       d="m 53.307307,27.9526 -2.178236,-0.743793 -0.478147,0.212519 -1.275065,-0.318771 -0.425021,0.05311 -0.371894,1.85947 -0.478145,0.371895 -0.69066,0.318762 -0.05313,0.531283 0.106255,1.487569 0.371894,0.212514 0.37189,0.478154 0.159383,0.584404 0.371895,0.159405 0.796916,-0.05311 0.690659,-0.212511 0.956295,-1.062558 0.159383,-0.106251 0.690659,0.05311 0.318766,-1.009425 0.212511,-0.05311 0.318765,-1.221937 0.265639,-0.478167 z"
       id="path3746" />
    <path
       style="display:inline;fill:#ececec;stroke:#000000;stroke-width:0.264583;stroke-linecap:butt;stroke-linejoin:miter;stroke-miterlimit:4;stroke-dasharray:none;stroke-opacity:1;fill-opacity:1"
       d="m 56.87468,13.770518 0.826473,-1.352407 -2.32915,-4.6582992 -0.601071,0.2254001 -2.103749,0.1502694 -1.878347,-0.075141 -0.601071,-0.2254066 -0.751338,0.2254066 -2.028615,1.6529397 -0.60107,1.8032137 -0.826473,2.103747 -0.07513,0.525938 -0.525937,0.300538 0.300535,1.803215 0.225403,0.525931 0.450803,0.751337 0.60107,1.502686 0.901606,1.277277 0.751339,0.601069 0.976741,0.15026 1.427543,0.375678 4.808568,1.652937 2.554551,-2.855082 -0.525937,-2.178886 -0.07513,-0.676199 0.525933,-0.52593 -0.07513,-0.901609 -0.901607,-0.901606 0.150268,-0.525933 -0.07513,-0.450806 z"
       id="path3631" />
    <path
       style="display:inline;fill:#ececec;stroke:#000000;stroke-width:0.26458333;stroke-linecap:butt;stroke-linejoin:miter;stroke-opacity:1;stroke-miterlimit:4;stroke-dasharray:none"
       d="m 39.11515,35.334542 0.994859,-2.984558 0.81397,-1.718384 0.633087,-1.627946 0.452211,-0.271321 -0.09045,-2.441916 0.542648,-1.356619 -0.271316,-2.984565 -0.904414,-0.180883 -0.271328,-0.633087 0.542649,-2.08015 -1.356619,-2.261033 -3.346324,-5.969123 -0.633093,-0.45221 -0.994853,-0.271321 h -0.452211 l -0.813969,-0.09045 h -1.175736 l -0.361766,0.361765 -0.904408,-0.4522035 -0.271327,0.5426485 -1.266174,0.09044 -0.542649,0.09044 -1.26618,0.542642 -0.09044,0.723532 -1.175743,1.899267 h -0.904412 l -0.904408,-1.266173 -0.904415,-0.542649 -8.411039,2.441916 -1.356625,0.81397 0.452211,2.713237 0.09044,0.723531 -0.361766,0.361766 -1.537501,0.542649 -0.542649,0.180883 -0.904408,0.81397 0.180883,1.447056 -0.361766,0.99486 -0.180883,1.175735 -0.271328,0.633087 -0.361765,1.356619 -0.09044,0.723531 -0.8139704,0.904415 0.3617594,3.346331 0.271328,1.08529 0.361765,0.633094 -0.180882,0.723532 v 0.633087 l 0.180882,1.718384 0.271321,0.994853 0.180883,3.708096 0.271328,2.261033 -0.271328,1.899261 -0.09044,1.537508 1.266174,2.170588 0.813976,1.537502 0.180883,1.537501 v 1.899274 l 0.994853,1.447057 1.266174,1.175742 1.627946,0.904408 1.26618,0.09045 0.904415,-0.723532 1.356619,-0.271321 3.436768,0.723525 1.356619,-0.271321 0.542649,-0.361766 1.899267,-0.271328 1.175735,-0.994852 2.080151,-2.532354 1.26618,-2.351478 0.271321,-0.904415 0.994853,-0.271321 0.633093,-0.271321 1.62794,-3.617652 -0.633087,-0.633093 0.180883,-0.81397 0.361766,-0.361766 v -0.633092 -1.537501 l 1.899267,-2.713244 0.09044,-0.904408 0.271328,-0.813976 0.723525,-0.180883 0.180883,-1.085291"
       id="path7302"
       sodipodi:nodetypes="cccccccccccccccccccccccccccccccccccccccccccccccccccccccccccccccccccccccccccccccccccccc" />
    <ellipse
       style="display:inline;opacity:0.8;fill:none;stroke:#000000;stroke-width:0.179064;stroke-miterlimit:4;stroke-dasharray:none"
       id="circle5383"
       cx="26.105991"
       cy="33.509098"
       ry="1.4516885"
       rx="1.4454955" />
    <path
       style="display:inline;fill:#00ccff;stroke:#00ccff;stroke-width:0.358129;stroke-linecap:butt;stroke-linejoin:miter;stroke-miterlimit:4;stroke-dasharray:none;stroke-opacity:1;marker-end:url(#marker5497)"
       d="m 26.098364,33.514747 -1.82447,11.469731"
       id="path5385"
       sodipodi:nodetypes="cc" />
    <path
       style="display:inline;fill:#00ccff;stroke:#00ccff;stroke-width:0.179064;stroke-linecap:butt;stroke-linejoin:miter;stroke-miterlimit:4;stroke-dasharray:0.35813, 0.179064;stroke-dashoffset:0;stroke-opacity:1;marker-end:url(#marker5477)"
       d="M 44.146196,59.814782 24.433511,45.79939"
       id="path5389"
       sodipodi:nodetypes="cc" />
    <path
       style="display:inline;fill:none;stroke:#000000;stroke-width:0.358129;stroke-linecap:butt;stroke-linejoin:miter;stroke-miterlimit:4;stroke-dasharray:none;stroke-opacity:1;marker-end:url(#marker5467)"
       d="M 26.091608,33.525719 43.681593,59.254876"
       id="path5391"
       sodipodi:nodetypes="cc" />
    <path
       sodipodi:nodetypes="cc"
       id="path5393"
       d="M 26.097943,33.708515 6.8826846,20.461867"
       style="display:inline;fill:#00ccff;stroke:#00ccff;stroke-width:0.179064;stroke-linecap:butt;stroke-linejoin:miter;stroke-miterlimit:4;stroke-dasharray:0.35813, 0.179064;stroke-dashoffset:0;stroke-opacity:1;marker-end:url(#marker5457)" />
    <path
       style="color:#000000;fill:#d5c29b;stroke-width:1.78778;-inkscape-stroke:none"
       d="m 26.097943,33.708515 -6.67402,4.561241"
       id="path3363" />
    <path
       id="path3360"
       style="color:#000000;fill:#d5c29b;stroke-width:1.00000001;stroke:#000000;stroke-miterlimit:4;stroke-dasharray:none"
       d="M 96.732422 124.61328 L 75.462891 139.14648 L 72.673828 135.06641 L 65.492188 150.05859 L 67.042969 149.94141 L 82.064453 148.80469 L 79.277344 144.72656 L 100.54102 130.19531 L 96.732422 124.61328 z "
       transform="scale(0.26458333)" />
    <path
       style="color:#000000;opacity:0.5;fill:#00ccff;stroke-width:1.79064;-inkscape-stroke:none"
       d="M 26.115071,33.42726 13.802288,12.675608"
       id="path2889" />
    <path
       id="path2891"
       style="color:#000000;opacity:0.5;fill:#00ccff;stroke-width:1.00000001;stroke:#000000;stroke-miterlimit:4;stroke-dasharray:none"
       d="M 47.259766 39.640625 L 47.28125 41.199219 L 47.451172 56.287109 L 51.707031 53.761719 L 95.794922 128.06836 L 101.61133 124.61328 L 57.525391 50.308594 L 61.779297 47.783203 L 47.259766 39.640625 z "
       transform="scale(0.26458333)" />
    <path
       style="color:#000000;opacity:0.5;fill:#b3b3b3;stroke-width:1.79064;-inkscape-stroke:none"
       d="m 26.105988,33.509089 28.438434,8.236633"
       id="path3431" />
    <path
       id="path3428"
       style="color:#000000;opacity:0.5;fill:#b3b3b3;stroke-width:1.00000001;stroke:#000000;stroke-miterlimit:4;stroke-dasharray:none"
       d="M 99.611328 123.39648 L 97.728516 129.89844 L 200.59961 159.69336 L 199.22266 164.44727 L 215.38867 160.45312 L 214.30273 159.33008 L 203.85742 148.44336 L 202.48047 153.19727 L 99.611328 123.39648 z "
       transform="scale(0.26458333)" />
    <path
       style="display:inline;fill:#b291bd;fill-opacity:1;stroke:#b291bd;stroke-width:0.358129;stroke-linecap:butt;stroke-linejoin:miter;stroke-miterlimit:4;stroke-dasharray:2.14878, 0.358129;stroke-dashoffset:0;stroke-opacity:1;marker-end:url(#marker5417)"
       d="m 26.091606,33.525719 9.475097,-8.052237"
       id="path5403" />
    <path
       d="M 26.105987,33.509095 63.915,44.459733"
       style="display:inline;fill:none;stroke:#b3b3b3;stroke-width:0.35813;stroke-linecap:butt;stroke-linejoin:miter;stroke-miterlimit:4;stroke-dasharray:none;stroke-opacity:1;marker-start:url(#marker9640);marker-end:url(#marker9660)"
       id="path9625" />
    <path
       id="path5395"
       style="display:inline;fill:none;stroke:#00ccff;stroke-width:0.179064;stroke-miterlimit:4;stroke-dasharray:none;stroke-dashoffset:0"
       d="m 18.666896,28.58588 a 9.0132368,9.0518525 0 0 1 2.954062,-2.733612" />
  </g>
</svg>
